<?xml version="1.0" encoding="iso-8859-1"?>
<svg version="1.1" id="Layer_1" xmlns="http://www.w3.org/2000/svg" xmlns:xlink="http://www.w3.org/1999/xlink" x="0px" y="0px"
	 viewBox="0 0 512.001 512.001" style="enable-background:new 0 0 512.001 512.001;" xml:space="preserve">
    <!-- Generator: Sketch 46.2 (44496) - http://www.bohemiancoding.com/sketch -->
    <title>goodguycritter</title>
    <desc>Created with Sketch.</desc>
    <defs>
        <radialGradient cx="43.4569985%" cy="47.9957529%" fx="43.4569985%" fy="47.9957529%" r="35.3295999%" gradientTransform="translate(0.434570,0.479958),scale(1.000000,0.702608),rotate(82.457187),translate(-0.434570,-0.479958)" id="radialGradient-1">
            <stop stop-color="#F6F220" offset="0%"></stop>
            <stop stop-color="#BF6004" offset="71.6529487%"></stop>
            <stop stop-color="#BF1904" offset="100%"></stop>
        </radialGradient>
        <radialGradient cx="60.6996059%" cy="46.4671914%" fx="60.6996059%" fy="46.4671914%" r="73.1956924%" gradientTransform="translate(0.606996,0.464672),scale(1.000000,0.360800),rotate(90.000000),translate(-0.606996,-0.464672)" id="radialGradient-2">
            <stop stop-color="#FFFFFF" offset="0%"></stop>
            <stop stop-color="#000000" offset="100%"></stop>
        </radialGradient>
    </defs>
    <g id="Page-1" stroke="none" stroke-width="1" fill="none" fill-rule="evenodd">
        <g id="goodguycritter">
            <path d="M179.499837,381.211962 C177.864782,371.5095 177,361.395074 177,351 C177,278.098413 219.532949,219 272,219 C324.467051,219 367,278.098413 367,351 C367,352.893177 366.971316,354.777045 366.91452,356.650811 L439.346258,411.494219 L434.947694,481.799666 L461.941512,512.141994 C464.417622,517.802156 465.406441,521.208349 464.907968,522.360575 C464.409496,523.512801 461.9471,523.512801 457.520781,522.360575 C446.590453,507.8067 440.532279,500.004014 439.346258,498.952516 C438.160237,497.901019 436.694049,499.032789 434.947694,502.347828 L442.279713,530.672558 C441.860321,535.843978 440.882503,538.429687 439.346258,538.429687 C437.810013,538.429687 435.32049,535.843978 431.877689,530.672558 L424.551062,502.347828 C422.968195,500.15929 421.308302,500.15929 419.571384,502.347828 C417.834465,504.536365 414.910762,508.984657 410.800274,515.692701 C407.907784,519.508656 405.661255,521.14281 404.060689,520.595163 C402.460122,520.047516 402.460122,517.229793 404.060689,512.141994 L419.571384,481.799666 L419.571384,434.442956 C417.997068,423.246053 416.484362,416.819548 415.033267,415.163442 C386.840403,382.98748 369.388011,374.112802 365.746499,372.49704 C360.394252,417.902076 338.36851,455.513345 308.691681,472.794451 L303.791112,500.423686 C307.243399,507.158333 310.043205,511.385743 312.19053,513.105915 C314.337855,514.826088 322.202851,519.142005 335.785517,526.053667 C338.439934,537.278449 338.439934,544.173241 335.785517,546.738045 C333.1311,549.302849 325.266104,550.00753 312.19053,548.852088 C301.622386,541.647165 294.11142,535.492185 289.657631,530.387151 C285.203843,525.282116 283.395184,520.754727 284.231656,516.804983 L284.231656,481.916005 C280.227138,482.631226 276.144564,483 272,483 C268.617522,483 265.276331,482.754375 261.985164,482.275262 L261.985164,518.619977 C262.821635,522.569721 261.012977,527.09711 256.559188,532.202145 C252.1054,537.307179 244.594434,543.462158 234.026289,550.667082 C220.950715,551.822524 213.085719,551.117843 210.431302,548.553039 C207.776885,545.988235 207.776885,539.093443 210.431302,527.868661 C224.013969,520.956999 231.878964,516.641082 234.026289,514.920909 C236.173614,513.200737 238.97342,508.973327 242.425708,502.23868 L237.413326,473.97905 C214.339734,461.441283 195.657446,436.728584 185.458481,405.526704 L128.744391,361.105053 L133.832031,276.984375 L102.609375,240.679688 C99.745359,233.907288 98.6016325,229.831767 99.1781955,228.453125 C99.7547585,227.074483 102.602912,227.074483 107.722656,228.453125 C120.365323,245.86688 127.372568,255.202818 128.744391,256.460938 C130.116214,257.719057 131.812094,256.364891 133.832031,252.398438 L125.351383,218.507812 C125.836476,212.320193 126.967479,209.226384 128.744391,209.226384 C130.521303,209.226384 133.400833,212.320193 137.382982,218.507812 L145.857395,252.398438 C147.688233,255.01703 149.608164,255.01703 151.617188,252.398438 C153.626211,249.779845 157.00794,244.457452 161.762374,236.431256 C165.108001,231.865455 167.70647,229.910185 169.55778,230.565446 C171.409091,231.220707 171.409091,234.592121 169.55778,240.679688 L151.617188,276.984375 L151.617188,333.64682 C153.438135,347.043949 155.18782,354.733281 156.866243,356.714817 C165.252548,366.615639 172.817215,374.672527 179.499837,381.211962 Z" id="Oval" stroke="#000000" stroke-width="3" fill="#4A90E2"></path>
            <path d="M273.125038,442 C305.558802,442 331.851563,408.663752 331.851563,367.541405 C331.851563,357.990798 334.435547,323.193138 331.851563,320.969529 C323.309607,313.618875 297.901068,350.477977 273,350.477977 C248.923513,350.477977 223.463708,315.825967 214.398512,320.969529 C211.251859,322.754929 214.398512,356.945323 214.398512,367.541405 C214.398512,408.663752 240.691273,442 273.125038,442 Z" id="Oval-2" stroke="#000000" stroke-width="4" fill="#FFFFFF"></path>
            <ellipse id="Oval-3" stroke="#000000" stroke-width="3" fill="#7ED321" cx="237.5" cy="283.5" rx="29.5" ry="30.5"></ellipse>
            <ellipse id="Oval-3" stroke="#000000" stroke-width="3" fill="#7ED321" cx="303.5" cy="283.5" rx="29.5" ry="30.5"></ellipse>
            <path d="M215.5,361.5 C241.619667,380.9431 260.953,390.664651 273.5,390.664651 C286.047,390.664651 305.380333,380.9431 331.5,361.5" id="Line" stroke="#000000" stroke-width="5" stroke-linecap="square"></path>
            <ellipse id="Oval-4" stroke="#000000" fill="#000000" cx="256" cy="283.5" rx="11" ry="11.5"></ellipse>
            <ellipse id="Oval-4" stroke="#000000" fill="#000000" cx="285" cy="283.5" rx="11" ry="11.5"></ellipse>
            <circle id="Oval-5" fill="#FFFFFF" cx="279" cy="284" r="4"></circle>
            <circle id="Oval-5" fill="#FFFFFF" cx="261" cy="284" r="4"></circle>
            <polygon id="Path-2" stroke="#F5A623" fill="url(#radialGradient-1)" points="106.591787 243.344084 86.0664194 328 77.4511823 252.716948 35.5554986 276.29489 51.6539848 232.118942 5.35163356 220.555074 46.5762101 199.408246 0.678140323 149.563988 46.5762101 149.563988 0.678140323 67.9866245 53.6349637 89.9824131 70.6066978 0.901612856 97.6329108 75.8973906 145.794957 34.6713656 137.883169 98.2404812 195.416458 89.9824131 151.204242 144.251555 230.5 136.640926 172.89394 182.253246 230.5 232.118942 166.085841 212.399911 182.839263 276.29489 137.883169 232.118942"></polygon>
            <polygon id="Path-4" stroke="#000000" stroke-width="5" fill="url(#radialGradient-2)" transform="translate(100.300024, 174.726688) rotate(-16.000000) translate(-100.300024, -174.726688) " points="100.300024 92.9639523 70.8000244 128.778331 87.2595989 256.489423 124.323429 256.489423 129.800024 128.778331"></polygon>
            <path d="M103.017396,243.695427 L179.883639,243.695427 L170.886981,252.955792 L155.317228,261.565515 L155.317228,341.695427 L134.160179,341.695427 L134.160179,261.565515 C124.852872,258.272802 118.066896,255.402895 113.802251,252.955792 C109.537607,250.50869 105.942655,247.421902 103.017396,243.695427 Z" id="Path-5" stroke="#000000" stroke-width="3" fill="#8B572A" transform="translate(141.450518, 292.695427) rotate(-16.000000) translate(-141.450518, -292.695427) "></path>
            <path d="M86.5,124.5 L123.5,233.5" id="Line-2" stroke="#000000" stroke-width="2" stroke-linecap="square"></path>
        </g>
    </g>
</svg>