<?xml version="1.0" encoding="iso-8859-1"?>
<!-- Generator: Adobe Illustrator 19.0.0, SVG Export Plug-In . SVG Version: 6.00 Build 0)  -->
<svg xmlns="http://www.w3.org/2000/svg" xmlns:xlink="http://www.w3.org/1999/xlink" version="1.1" id="Layer_1" x="0px" y="0px" viewBox="0 0 512.001 512.001" style="enable-background:new 0 0 512.001 512.001;" xml:space="preserve" width="512px" height="512px">
<g>
	<g>
		<rect x="230.964" y="61.247" width="22.259" height="16.695" fill="#00e1ff"/>
	</g>
</g>
<g>
	<g>
		<rect x="264.353" y="61.247" width="22.259" height="16.695" fill="#00e1ff"/>
	</g>
</g>
<g>
	<g>
		<path d="M422.946,133.591V77.942c0-15.342-12.482-27.824-27.824-27.824S367.298,62.6,367.298,77.942v27.824h-37.883    c-0.587-8.777-1.071-17.821-1.071-25.042c0-38.282-18.747-58.248-34.473-68.255c-16.818-10.702-33.625-12.336-34.333-12.4    L258.784,0l-0.756,0.07c-0.708,0.065-17.514,1.697-34.333,12.401c-15.726,10.007-34.473,29.973-34.473,68.255    c0,7.106-0.47,15.973-1.073,25.042h-43.446V77.943c0-15.342-12.482-27.824-27.824-27.824c-15.342,0-27.824,12.482-27.824,27.824    v55.648c0,15.342,12.482,27.824,27.824,27.824h67.199c-1.199,18.133-2.308,39.702-2.264,61.213h-64.935    c-15.342,0-27.824,12.482-27.824,27.824v55.648c0,15.342,12.482,27.824,27.824,27.824c15.342,0,27.824-12.482,27.824-27.824    v-27.824h40.612c6.065,42.55,20.136,69.358,42.86,81.588v121.528c0,16.876,13.731,30.607,30.607,30.607    c16.876,0,30.607-13.731,30.607-30.607V359.865c22.727-12.23,36.798-39.041,42.86-81.588h35.047v27.824    c0,15.342,12.482,27.824,27.824,27.824c15.342,0,27.824-12.482,27.824-27.824v-55.648c0-15.342-12.482-27.824-27.824-27.824    H335.75c0.043-21.553-1.066-43.102-2.263-61.213h61.634C410.464,161.415,422.946,148.933,422.946,133.591z M128.01,261.582v44.519    c0,6.137-4.993,11.13-11.13,11.13s-11.13-4.993-11.13-11.13v-55.648c0-6.137,4.993-11.13,11.13-11.13h65.222    c0.26,7.864,0.689,15.253,1.304,22.259H128.01z M186.408,129.482c-0.377,4.923-0.766,10.021-1.152,15.239H116.88    c-6.137,0-11.13-4.993-11.13-11.13V77.942c0-6.137,4.993-11.13,11.13-11.13s11.13,4.993,11.13,11.13v44.519h58.935    C186.77,124.763,186.591,127.099,186.408,129.482z M203.055,130.757c0.424-5.557,0.834-10.904,1.204-16    c0.86-11.964,1.657-24.368,1.657-34.032c0-54.919,45.961-63.033,52.836-63.937c2.985,0.421,14.682,2.465,26.156,9.765    c17.743,11.292,26.74,29.517,26.74,54.172c0,9.914,0.838,22.748,1.657,33.996c0.371,5.093,0.78,10.446,1.205,16.008    c0.346,4.529,0.703,9.211,1.058,13.992H201.997C202.352,139.948,202.709,135.276,203.055,130.757z M316.636,268.901    c-4.994,43.012-18.059,69.262-38.836,78.022l-5.104,2.152v132.319c0,7.672-6.24,13.912-13.912,13.912    c-7.672,0-13.912-6.24-13.912-13.912V349.076l-5.104-2.152c-20.777-8.76-33.842-35.011-38.837-78.025    c-1.062-9.12-1.76-18.887-2.126-29.575h119.959C318.397,250.005,317.689,259.93,316.636,268.901z M198.511,222.628    c-0.016-7.457,0.107-14.927,0.331-22.259h82.202v-16.695H199.51c0.382-7.81,0.836-15.3,1.3-22.259h115.946    c1.206,18.062,2.344,39.69,2.301,61.213H198.511z M335.469,239.323h59.653c6.136,0,11.13,4.994,11.13,11.13v55.648    c0,6.137-4.993,11.13-11.13,11.13s-11.13-4.993-11.13-11.13v-44.519h-49.826C334.785,254.574,335.212,247.185,335.469,239.323z     M332.312,144.72c-0.386-5.227-0.776-10.335-1.154-15.267c-0.181-2.373-0.359-4.7-0.533-6.993c0,0,53.368,0,53.368,0V77.942    c0-6.137,4.993-11.13,11.13-11.13s11.13,4.993,11.13,11.13v55.648c0,6.137-4.993,11.13-11.13,11.13H332.312z" fill="#00e1ff"/>
	</g>
</g>
<g>
</g>
<g>
</g>
<g>
</g>
<g>
</g>
<g>
</g>
<g>
</g>
<g>
</g>
<g>
</g>
<g>
</g>
<g>
</g>
<g>
</g>
<g>
</g>
<g>
</g>
<g>
</g>
<g>
</g>
</svg>
